<?xml version="1.0" encoding="UTF-8" standalone="no"?>
<!-- Created with Inkscape (http://www.inkscape.org/) -->

<svg
   xmlns:dc="http://purl.org/dc/elements/1.1/"
   xmlns:cc="http://creativecommons.org/ns#"
   xmlns:rdf="http://www.w3.org/1999/02/22-rdf-syntax-ns#"
   xmlns:svg="http://www.w3.org/2000/svg"
   xmlns="http://www.w3.org/2000/svg"
   xmlns:sodipodi="http://sodipodi.sourceforge.net/DTD/sodipodi-0.dtd"
   xmlns:inkscape="http://www.inkscape.org/namespaces/inkscape"
   width="118.27296mm"
   height="93.598915mm"
   viewBox="0 0 118.27297 93.598916"
   version="1.1"
   id="svg8"
   inkscape:version="0.92.2 5c3e80d, 2017-08-06"
   sodipodi:docname="logo.svg">
  <defs
     id="defs2" />
  <sodipodi:namedview
     id="base"
     pagecolor="#ffffff"
     bordercolor="#666666"
     borderopacity="1.0"
     inkscape:pageopacity="0.0"
     inkscape:pageshadow="2"
     inkscape:zoom="3.9548909"
     inkscape:cx="288.24833"
     inkscape:cy="175.52771"
     inkscape:document-units="mm"
     inkscape:current-layer="layer1"
     showgrid="false"
     inkscape:snap-text-baseline="true"
     inkscape:window-width="3840"
     inkscape:window-height="2102"
     inkscape:window-x="0"
     inkscape:window-y="28"
     inkscape:window-maximized="0" />
  <metadata
     id="metadata5">
    <rdf:RDF>
      <cc:Work
         rdf:about="">
        <dc:format>image/svg+xml</dc:format>
        <dc:type
           rdf:resource="http://purl.org/dc/dcmitype/StillImage" />
        <dc:title />
      </cc:Work>
    </rdf:RDF>
  </metadata>
  <g
     inkscape:label="Layer 1"
     inkscape:groupmode="layer"
     id="layer1"
     transform="translate(-44.946209,-33.611761)">
    <text
       xml:space="preserve"
       style="font-style:normal;font-weight:normal;font-size:10.60450172px;line-height:125%;font-family:sans-serif;letter-spacing:0px;word-spacing:0px;fill:#f25c2c;fill-opacity:1;stroke:none;stroke-width:0.26511255px;stroke-linecap:butt;stroke-linejoin:miter;stroke-opacity:1"
       x="42.193333"
       y="82.162788"
       id="text4571"
       inkscape:export-filename="/home/jrosenth/g848.png"
       inkscape:export-xdpi="106.01897"
       inkscape:export-ydpi="106.01897"><tspan
         sodipodi:role="line"
         id="tspan4569"
         x="42.193333"
         y="82.162788"
         style="font-style:normal;font-variant:normal;font-weight:normal;font-stretch:normal;font-size:35.70182419px;font-family:Linotte;-inkscape-font-specification:Linotte;fill:#f25c2c;fill-opacity:1;stroke-width:0.26511255px">PUZZLE</tspan></text>
    <text
       xml:space="preserve"
       style="font-style:normal;font-weight:normal;font-size:12.51202774px;line-height:125%;font-family:sans-serif;letter-spacing:0px;word-spacing:0px;fill:#03254c;fill-opacity:1;stroke:none;stroke-width:0.31280071px;stroke-linecap:butt;stroke-linejoin:miter;stroke-opacity:1"
       x="43.961304"
       y="102.68293"
       id="text4589"
       inkscape:export-filename="/home/jrosenth/g848.png"
       inkscape:export-xdpi="106.01897"
       inkscape:export-ydpi="106.01897"><tspan
         sodipodi:role="line"
         id="tspan4587"
         x="43.961304"
         y="102.68293"
         style="font-style:normal;font-variant:normal;font-weight:normal;font-stretch:normal;font-size:21.89605141px;font-family:Linotte;-inkscape-font-specification:Linotte;fill:#03254c;fill-opacity:1;stroke-width:0.31280071px">CHALLENGE</tspan></text>
    <text
       xml:space="preserve"
       style="font-style:normal;font-weight:normal;font-size:10.58333302px;line-height:125%;font-family:sans-serif;letter-spacing:0px;word-spacing:0px;fill:#000000;fill-opacity:1;stroke:none;stroke-width:0.26458332px;stroke-linecap:butt;stroke-linejoin:miter;stroke-opacity:1"
       x="43.953487"
       y="60.841984"
       id="text4593"><tspan
         sodipodi:role="line"
         id="tspan4591"
         x="43.953487"
         y="70.20575"
         style="stroke-width:0.26458332px" /></text>
    <text
       xml:space="preserve"
       style="font-style:normal;font-variant:normal;font-weight:normal;font-stretch:normal;font-size:10.58333302px;line-height:125%;font-family:'Gotham Condensed';-inkscape-font-specification:'Gotham Condensed, ';letter-spacing:0px;word-spacing:0px;fill:#000000;fill-opacity:1;stroke:none;stroke-width:0.26458332px;stroke-linecap:butt;stroke-linejoin:miter;stroke-opacity:1"
       x="45.358395"
       y="60.641289"
       id="text831"><tspan
         sodipodi:role="line"
         id="tspan829"
         x="45.358395"
         y="70.901802"
         style="font-style:normal;font-variant:normal;font-weight:normal;font-stretch:normal;font-family:'Gotham Condensed';-inkscape-font-specification:'Gotham Condensed, ';stroke-width:0.26458332px" /></text>
    <g
       id="g848"
       transform="matrix(1.001209,0,0,1.001209,-0.19150783,-25.872838)"
       inkscape:export-filename="/home/jrosenth/g848.png"
       inkscape:export-xdpi="106.01897"
       inkscape:export-ydpi="106.01897">
      <text
         id="text835"
         y="75.894547"
         x="43.886589"
         style="font-style:normal;font-weight:normal;font-size:10.58333302px;line-height:125%;font-family:sans-serif;letter-spacing:0px;word-spacing:0px;fill:#03254c;fill-opacity:1;stroke:none;stroke-width:0.26458332px;stroke-linecap:butt;stroke-linejoin:miter;stroke-opacity:1"
         xml:space="preserve"><tspan
           style="font-style:normal;font-variant:normal;font-weight:normal;font-stretch:normal;font-size:22.57777786px;font-family:'Gotham Bold';-inkscape-font-specification:'Gotham Bold, ';fill:#03254c;fill-opacity:1;stroke-width:0.26458332px"
           y="75.894547"
           x="43.886589"
           id="tspan833"
           sodipodi:role="line">CS</tspan></text>
      <text
         xml:space="preserve"
         style="font-style:normal;font-weight:normal;font-size:10.58333302px;line-height:125%;font-family:sans-serif;letter-spacing:0px;word-spacing:0px;fill:#03254c;fill-opacity:1;stroke:none;stroke-width:0.26458332px;stroke-linecap:butt;stroke-linejoin:miter;stroke-opacity:1"
         x="98.477219"
         y="75.894547"
         id="text836"><tspan
           sodipodi:role="line"
           id="tspan834"
           x="98.477219"
           y="75.894547"
           style="font-style:normal;font-variant:normal;font-weight:normal;font-stretch:normal;font-size:22.57777786px;font-family:'Gotham Bold';-inkscape-font-specification:'Gotham Bold, ';fill:#03254c;fill-opacity:1;stroke-width:0.26458332px">Mines</tspan></text>
      <text
         xml:space="preserve"
         style="font-style:normal;font-weight:normal;font-size:10.58333302px;line-height:125%;font-family:sans-serif;letter-spacing:0px;word-spacing:0px;fill:#f25c2c;fill-opacity:1;stroke:none;stroke-width:0.26458332px;stroke-linecap:butt;stroke-linejoin:miter;stroke-opacity:1"
         x="75.664223"
         y="75.894547"
         id="text840"><tspan
           sodipodi:role="line"
           id="tspan838"
           x="75.664223"
           y="75.894547"
           style="font-style:normal;font-variant:normal;font-weight:normal;font-stretch:normal;font-size:22.57777786px;font-family:'Gotham Bold';-inkscape-font-specification:'Gotham Bold, ';fill:#f25c2c;fill-opacity:1;stroke-width:0.26458332px">@</tspan></text>
    </g>
    <g
       id="g977"
       transform="matrix(0.21562825,0,0,0.2156282,104.99853,107.97017)">
      <path
         id="path951"
         d="m 115.75,47.18 c 0,12.77 -9.99,22.18 -22.25,22.18 C 81.24,69.36 71.25,59.95 71.25,47.18 71.25,34.32 81.24,25 93.5,25 c 12.26,0 22.25,9.32 22.25,22.18 z m -9.74,0 c 0,-7.98 -5.79,-13.44 -12.51,-13.44 -6.72,0 -12.51,5.46 -12.51,13.44 0,7.9 5.79,13.44 12.51,13.44 6.72,0 12.51,-5.55 12.51,-13.44 z"
         inkscape:connector-curvature="0"
         style="fill:#ea4335" />
      <path
         id="path953"
         d="m 163.75,47.18 c 0,12.77 -9.99,22.18 -22.25,22.18 -12.26,0 -22.25,-9.41 -22.25,-22.18 0,-12.85 9.99,-22.18 22.25,-22.18 12.26,0 22.25,9.32 22.25,22.18 z m -9.74,0 c 0,-7.98 -5.79,-13.44 -12.51,-13.44 -6.72,0 -12.51,5.46 -12.51,13.44 0,7.9 5.79,13.44 12.51,13.44 6.72,0 12.51,-5.55 12.51,-13.44 z"
         inkscape:connector-curvature="0"
         style="fill:#fbbc05" />
      <path
         id="path955"
         d="m 209.75,26.34 v 39.82 c 0,16.38 -9.66,23.07 -21.08,23.07 -10.75,0 -17.22,-7.19 -19.66,-13.07 l 8.48,-3.53 c 1.51,3.61 5.21,7.87 11.17,7.87 7.31,0 11.84,-4.51 11.84,-13 v -3.19 h -0.34 c -2.18,2.69 -6.38,5.04 -11.68,5.04 -11.09,0 -21.25,-9.66 -21.25,-22.09 0,-12.52 10.16,-22.26 21.25,-22.26 5.29,0 9.49,2.35 11.68,4.96 h 0.34 v -3.61 h 9.25 z m -8.56,20.92 c 0,-7.81 -5.21,-13.52 -11.84,-13.52 -6.72,0 -12.35,5.71 -12.35,13.52 0,7.73 5.63,13.36 12.35,13.36 6.63,0 11.84,-5.63 11.84,-13.36 z"
         inkscape:connector-curvature="0"
         style="fill:#4285f4" />
      <path
         id="path957"
         d="m 225,3 v 65 h -9.5 V 3 Z"
         inkscape:connector-curvature="0"
         style="fill:#34a853" />
      <path
         id="path959"
         d="m 262.02,54.48 7.56,5.04 c -2.44,3.61 -8.32,9.83 -18.48,9.83 -12.6,0 -22.01,-9.74 -22.01,-22.18 0,-13.19 9.49,-22.18 20.92,-22.18 11.51,0 17.14,9.16 18.98,14.11 L 270,41.62 240.35,53.9 c 2.27,4.45 5.8,6.72 10.75,6.72 4.96,0 8.4,-2.44 10.92,-6.14 z m -23.27,-7.98 19.82,-8.23 c -1.09,-2.77 -4.37,-4.7 -8.23,-4.7 -4.95,0 -11.84,4.37 -11.59,12.93 z"
         inkscape:connector-curvature="0"
         style="fill:#ea4335" />
      <path
         id="path961"
         d="M 35.29,41.41 V 32 H 67 c 0.31,1.64 0.47,3.58 0.47,5.68 0,7.06 -1.93,15.79 -8.15,22.01 -6.05,6.3 -13.78,9.66 -24.02,9.66 C 16.32,69.35 0.36,53.89 0.36,34.91 0.36,15.93 16.32,0.47 35.3,0.47 c 10.5,0 17.98,4.12 23.6,9.49 L 52.26,16.6 C 48.23,12.82 42.77,9.88 35.29,9.88 c -13.86,0 -24.7,11.17 -24.7,25.03 0,13.86 10.84,25.03 24.7,25.03 8.99,0 14.11,-3.61 17.39,-6.89 2.66,-2.66 4.41,-6.46 5.1,-11.65 z"
         inkscape:connector-curvature="0"
         style="fill:#4285f4" />
    </g>
    <text
       xml:space="preserve"
       style="font-style:normal;font-weight:normal;font-size:11.52841854px;line-height:125%;font-family:sans-serif;letter-spacing:0px;word-spacing:0px;fill:#03254c;fill-opacity:1;stroke:none;stroke-width:0.28821063px;stroke-linecap:butt;stroke-linejoin:miter;stroke-opacity:1"
       x="44.771847"
       y="113.31665"
       id="text981"><tspan
         sodipodi:role="line"
         id="tspan979"
         x="44.771847"
         y="113.31665"
         style="font-style:normal;font-variant:normal;font-weight:normal;font-stretch:normal;font-size:8.45417309px;font-family:'Gotham Bold';-inkscape-font-specification:'Gotham Bold, ';fill:#03254c;fill-opacity:1;stroke-width:0.28821063px">Sponsored by</tspan></text>
  </g>
</svg>
