<?xml version="1.0" encoding="UTF-8" standalone="no"?>
<svg
   xmlns:dc="http://purl.org/dc/elements/1.1/"
   xmlns:cc="http://creativecommons.org/ns#"
   xmlns:rdf="http://www.w3.org/1999/02/22-rdf-syntax-ns#"
   xmlns:svg="http://www.w3.org/2000/svg"
   xmlns="http://www.w3.org/2000/svg"
   xmlns:sodipodi="http://sodipodi.sourceforge.net/DTD/sodipodi-0.dtd"
   xmlns:inkscape="http://www.inkscape.org/namespaces/inkscape"
   width="998.32135"
   height="1158.7463"
   viewBox="0 0 998.32135 1158.7463"
   version="1.1"
   id="svg4039"
   sodipodi:docname="unfold_blender.svg"
   inkscape:version="0.92.2 2405546, 2018-03-11">
  <metadata
     id="metadata4045">
    <rdf:RDF>
      <cc:Work
         rdf:about="">
        <dc:format>image/svg+xml</dc:format>
        <dc:type
           rdf:resource="http://purl.org/dc/dcmitype/StillImage" />
        <dc:title></dc:title>
      </cc:Work>
    </rdf:RDF>
  </metadata>
  <defs
     id="defs4043" />
  <sodipodi:namedview
     pagecolor="#ffffff"
     bordercolor="#666666"
     borderopacity="1"
     objecttolerance="10"
     gridtolerance="10"
     guidetolerance="10"
     inkscape:pageopacity="0"
     inkscape:pageshadow="2"
     inkscape:window-width="1916"
     inkscape:window-height="1038"
     id="namedview4041"
     showgrid="false"
     fit-margin-left="64"
     fit-margin-top="64"
     fit-margin-bottom="64"
     fit-margin-right="64"
     inkscape:zoom="0.4140625"
     inkscape:cx="179.21199"
     inkscape:cy="518.10253"
     inkscape:window-x="1920"
     inkscape:window-y="20"
     inkscape:window-maximized="0"
     inkscape:current-layer="svg4039" />
  <desc
     id="desc3899">'', Plane.001, (Blender 2.79 (sub 0))</desc>
  <polygon
     points="751.126,481.993 744.96,512.243 751.126,542.494 765.513,544.029 786.065,530.591 802.507,533.663 806.104,580.506 824.529,591.64 824.529,432.846 806.104,443.981 802.507,490.824 786.065,493.896 765.513,480.458 "
     id="polygon3901"
     style="fill:#808080;fill-opacity:0.25;stroke:#000000;stroke-width:5;stroke-miterlimit:4;stroke-dasharray:none"
     transform="translate(-322.53239,67.37315)" />
  <polygon
     points="769.537,695.816 761.167,738.567 770.109,769.299 811.719,795.201 798.274,757.927 796.977,729.814 807.058,696.595 811.719,639.315 796.135,592.049 744.96,650.925 762.972,666.217 "
     id="polygon3903"
     style="fill:#808080;fill-opacity:0.25;stroke:#000000;stroke-width:5;stroke-miterlimit:4;stroke-dasharray:none"
     transform="rotate(45,950.88768,221.23888)" />
  <polygon
     points="796.481,982.637 781.614,966.331 776.975,948.766 777.158,921.542 783.619,893.401 795.528,868.271 822.184,844.473 830.867,852.181 869.044,795.61 821.402,799.171 774.691,835.646 754.524,876.257 745.214,913.427 744.96,948.495 757.677,992.836 782.099,1014.843 825.157,1023.796 869.044,1015.756 861.714,984.347 826.581,990.603 "
     id="polygon3905"
     style="fill:#808080;fill-opacity:0.25;stroke:#000000;stroke-width:5;stroke-miterlimit:4;stroke-dasharray:none"
     transform="rotate(-85,560.09152,948.33543)" />
  <path
     d="m 303.18452,67.576275 -27.06055,24.292969 -25.70508,25.720706 -24.27734,27.07617 -22.77539,28.34765 -21.20703,29.53907 -19.58008,30.64453 -17.89063,31.6582 -16.15039,32.58008 -14.36523,33.4082 -12.53516,34.13477 -10.669923,34.76367 -8.773438,35.29102 -6.849609,35.71289 -4.908203,36.03125 -2.949219,36.24414 -0.986328,36.35156 0.986328,36.35156 2.949219,36.24414 4.908203,36.03125 6.849609,35.71289 8.773438,35.29102 10.669923,34.76367 12.53516,34.13477 14.36523,33.4082 16.15039,32.58008 17.89063,31.6582 19.58008,30.64453 21.20703,29.53907 22.77539,28.34767 24.27734,27.0761 25.70508,25.7208 27.06055,24.2929 130.05664,-153.0156 -18.9707,-17.0293 -18.02149,-18.03125 -17.01758,-18.98047 -15.96484,-19.87304 -14.86914,-20.70703 -13.72266,-21.48243 -12.54492,-22.19335 -11.32031,-22.83985 -10.07031,-23.41992 -8.78907,-23.92773 -7.47851,-24.3711 -6.15039,-24.74023 -4.80274,-25.03516 -3.43945,-25.25977 -2.06836,-25.4082 -0.68945,-25.48242 0.68945,-25.48242 2.06836,-25.4082 3.43945,-25.25977 4.80274,-25.03516 6.15039,-24.74023 7.47851,-24.3711 8.78907,-23.92968 10.07031,-23.41797 11.32031,-22.83985 12.54492,-22.19335 13.72266,-21.48243 14.86914,-20.70703 15.96484,-19.87304 17.01758,-18.98047 18.02149,-18.03125 18.9707,-17.0293 z"
     id="polygon3907"
     style="fill:#e5e5e5;fill-opacity:1;stroke:#000000;stroke-width:5;stroke-miterlimit:4;stroke-dasharray:none;stroke-opacity:0.99047618"
     inkscape:connector-curvature="0" />
  <polygon
     points="484.019,306.455 509.511,306.455 534.514,301.481 558.066,291.726 579.262,277.563 597.288,259.538 611.45,238.342 621.206,214.79 626.179,189.787 626.179,164.295 621.206,139.293 611.451,115.741 597.288,94.545 579.262,76.519 558.066,62.356 534.515,52.601 509.512,47.627 484.02,47.627 459.017,52.601 435.465,62.356 414.269,76.519 396.243,94.545 382.08,115.741 372.325,139.293 367.352,164.295 367.352,189.788 372.325,214.791 382.081,238.342 396.244,259.538 414.269,277.564 435.465,291.726 459.017,301.482 "
     id="polygon3967"
     style="fill:#e5e5e5;fill-opacity:1;stroke:#000000;stroke-width:5;stroke-miterlimit:4;stroke-dasharray:none"
     transform="translate(305.64233,559.52375)" />
  <polygon
     points="655.113,97.23 641.13,118.158 631.498,141.411 626.588,166.097 626.588,191.266 631.498,215.952 641.13,239.205 655.113,260.132 672.911,277.929 693.838,291.913 717.092,301.544 741.777,306.455 766.946,306.455 791.632,301.544 814.885,291.913 835.813,277.93 853.61,260.133 867.593,239.205 877.225,215.952 882.135,191.267 882.135,166.098 877.225,141.412 867.594,118.159 853.61,97.231 835.813,79.433 814.885,65.45 791.631,55.818 766.946,50.908 741.776,50.908 717.091,55.818 693.838,65.45 672.91,79.433 "
     id="polygon3973"
     style="fill:#808080;fill-opacity:0.25;stroke:#000000;stroke-width:5;stroke-miterlimit:4;stroke-dasharray:none"
     transform="translate(-73.777675,316.12787)" />
  <path
     d="m 621.12681,213.63266 -36.17969,3.66992 -35.62109,7.3125 -34.69922,10.87891 -33.41992,14.33398 -31.79883,17.64063 -29.84961,20.76953 -27.5957,23.68359 -25.05664,26.35352 -22.26172,28.75391 -19.23828,30.85742 -16.01758,32.64648 -12.63086,34.09961 -9.11719,35.20508 -5.50781,35.94336 -1.8418,36.31836 1.8418,36.31836 5.50781,35.94531 9.11719,35.20313 12.63086,34.0996 16.01758,32.64649 19.23828,30.85742 22.26172,28.75391 25.05664,26.35351 27.5957,23.6836 29.85156,20.76953 31.79688,17.64062 33.41992,14.33394 34.69922,10.879 35.62305,7.3125 36.17773,3.6699 36.36328,-0.0117 -5.62695,-110.35356 -25.16797,0.006 -25.04102,-2.53906 -24.65429,-5.06055 -24.01758,-7.5293 -23.13281,-9.92187 -22.00782,-12.21094 -20.66015,-14.375 -19.09961,-16.39258 -17.34375,-18.23828 -15.40821,-19.90234 -13.31445,-21.35938 -11.08789,-22.5957 -8.74219,-23.60156 -6.30859,-24.36524 -3.8125,-24.8789 -1.27539,-25.13672 1.27539,-25.13672 3.8125,-24.87891 6.30859,-24.36523 8.74219,-23.60156 11.08789,-22.59571 13.31445,-21.35937 15.41016,-19.90235 17.3418,-18.23828 19.09961,-16.39257 20.66015,-14.375 22.00977,-12.21094 23.13086,-9.92188 24.01758,-7.52929 24.65429,-5.06055 25.04102,-2.54102 25.16992,0.008 5.625,-110.35547 z"
     id="polygon3975"
     style="fill:#e5e5e5;fill-opacity:1;stroke:#000000;stroke-width:5;stroke-miterlimit:4;stroke-dasharray:none;stroke-opacity:0.98039216"
     inkscape:connector-curvature="0" />
</svg>
