<?xml version="1.0" encoding="UTF-8" standalone="no"?>
<svg
   xmlns:dc="http://purl.org/dc/elements/1.1/"
   xmlns:cc="http://creativecommons.org/ns#"
   xmlns:rdf="http://www.w3.org/1999/02/22-rdf-syntax-ns#"
   xmlns:svg="http://www.w3.org/2000/svg"
   xmlns="http://www.w3.org/2000/svg"
   xmlns:sodipodi="http://sodipodi.sourceforge.net/DTD/sodipodi-0.dtd"
   xmlns:inkscape="http://www.inkscape.org/namespaces/inkscape"
   version="1.1"
   width="210.00mm"
   height="297.00mm"
   viewBox="0 0 210.00 297.00"
   id="svg5151"
   sodipodi:docname="teapot.svg"
   inkscape:version="0.92.2 2405546, 2018-03-11">
  <metadata
     id="metadata5157">
    <rdf:RDF>
      <cc:Work
         rdf:about="">
        <dc:format>image/svg+xml</dc:format>
        <dc:type
           rdf:resource="http://purl.org/dc/dcmitype/StillImage" />
        <dc:title></dc:title>
      </cc:Work>
    </rdf:RDF>
  </metadata>
  <defs
     id="defs5155" />
  <sodipodi:namedview
     pagecolor="#ffffff"
     bordercolor="#666666"
     borderopacity="1"
     objecttolerance="10"
     gridtolerance="10"
     guidetolerance="10"
     inkscape:pageopacity="0"
     inkscape:pageshadow="2"
     inkscape:window-width="1916"
     inkscape:window-height="1038"
     id="namedview5153"
     showgrid="false"
     inkscape:zoom="0.5946522"
     inkscape:cx="251.58605"
     inkscape:cy="597.7177"
     inkscape:window-x="1920"
     inkscape:window-y="20"
     inkscape:window-maximized="0"
     inkscape:current-layer="svg5151" />
  <style
     type="text/css"
     id="style5127">
    path {
        fill: none;
        stroke-linecap: butt;
        stroke-linejoin: bevel;
        stroke-dasharray: none;
    }
    path.outer {
        stroke: #000000;
        stroke-dasharray: none;
        stroke-dashoffset: 0;
        stroke-width: 0.3;
        stroke-opacity: 1.0;
    }
    path.convex {
        stroke: #000000;
        stroke-dasharray: 0.50,1.00;
        stroke-dashoffset:0;
        stroke-width:0.2;
        stroke-opacity: 1.0
    }
    path.concave {
        stroke: #000000;
        stroke-dasharray: 1.00,0.50,0.20,0.50;
        stroke-dashoffset: 0;
        stroke-width: 0.2;
        stroke-opacity: 1.0
    }
    path.freestyle {
        stroke: #000000;
        stroke-dasharray: none;
        stroke-dashoffset: 0;
        stroke-width: 0.2;
        stroke-opacity: 1.0
    }
    path.outer_background {
        stroke: #ffffff;
        stroke-opacity: 1.0;
        stroke-width: 0.5
    }
    path.inner_background {
        stroke: #ffffff;
        stroke-opacity: 1.0;
        stroke-width: 0.2
    }
    path.sticker {
        fill: #e5e5e5;
        stroke: none;
        fill-opacity: 1.0;
    }
    path.arrow {
        fill: #000;
    }
    text {
        font-style: normal;
        fill: #000000;
        fill-opacity: 1.0;
        stroke: none;
    }
    text, tspan {
        text-anchor:middle;
    }
    </style>
  <path
     class="outer"
     d="m 162.45035,156.95872 4.56097,-9.18422 10.5637,-8.24897 10.77453,-0.80526 -8.63399,12.79379 -1.96358,-1.74323 -6.0283,5.38193 -2.69341,5.6833 -1.46112,6.36405 -0.0414,6.15687 1.04926,3.97226 3.36208,3.68775 6.80732,1.80142 7.94527,-1.41467 1.65784,7.10309 -9.92517,1.81826 -9.73777,-2.02465 -5.52309,-4.97695 -2.87592,-10.02788 0.0572,-7.93064 z"
     id="path5129"
     inkscape:connector-curvature="0"
     style="fill:none;stroke:#000000;stroke-width:0.26046562;stroke-linecap:butt;stroke-linejoin:bevel;stroke-dasharray:none;stroke-dashoffset:0;stroke-opacity:1"
     inkscape:label="handle" />
  <path
     class="outer"
     d="m 92.792039,198.13738 2.507172,5.1102 3.011348,4.83027 3.484661,4.50078 3.92219,4.12509 4.31946,3.70704 4.67238,3.25095 4.97737,2.76149 5.23124,2.2437 5.4314,1.70284 5.57583,1.14452 5.66303,0.57447 5.69204,-0.002 1.27248,24.95701 -8.22384,0.002 -8.18192,-0.82998 -8.05594,-1.6536 -7.84726,-2.46027 -7.55806,-3.24167 -7.19125,-3.98978 -6.750645,-4.69696 -6.240722,-5.35592 -5.666759,-5.95991 -5.034627,-6.5027 -4.3508,-6.97875 -3.622322,-7.38319 -2.856665,-7.7118 -2.06169,-7.9613 -1.245521,-8.12903 -0.416606,-8.21334 0.416606,-8.21334 1.24553,-8.12904 2.061681,-7.96128 2.856665,-7.7118 3.622322,-7.38317 4.350809,-6.97877 5.034618,-6.5027 5.666759,-5.95989 6.240722,-5.3559 6.750625,-4.69698 7.19126,-3.98979 7.55805,-3.241648 7.84726,-2.46028 8.05593,-1.653601 8.18191,-0.829973 8.2239,0.0026 -1.2725,24.956982 -5.69209,-0.002 -5.66302,0.57446 -5.57584,1.14452 -5.43138,1.70284 -5.23124,2.2437 -4.97735,2.76148 -4.67238,3.25096 -4.31945,3.70705 -3.92219,4.12508 -3.484661,4.50078 -3.011348,4.83025 -2.507155,5.1102 -1.97722,5.33765 -1.426961,5.51032 -0.862089,5.62644 -0.288353,5.68477 0.288353,5.68479 0.862089,5.62642 1.426969,5.51032 z"
     id="path5135"
     inkscape:connector-curvature="0"
     style="fill:none;stroke:#000000;stroke-width:0.26046562;stroke-linecap:butt;stroke-linejoin:bevel;stroke-dasharray:none;stroke-dashoffset:0;stroke-opacity:1"
     inkscape:label="bedge" />
  <path
     class="outer"
     d="m 165.16598,42.488679 -1.12473,5.654385 -2.20624,5.326304 -3.20294,4.793539 -4.07658,4.07657 -4.79356,3.202957 -5.32626,2.206196 -5.65437,1.124734 -5.76515,1.7e-5 -5.65438,-1.124725 -5.32629,-2.206222 -4.79356,-3.202957 -4.07658,-4.07657 -3.20294,-4.793539 -2.20624,-5.326304 -1.12473,-5.654372 V 36.72355 l 1.12472,-5.654372 2.20623,-5.326304 3.20294,-4.793564 4.07656,-4.07657 4.79355,-3.202956 5.32632,-2.206226 5.65437,-1.124732 h 5.76515 l 5.65437,1.124732 5.32631,2.206201 4.79355,3.202954 4.07657,4.076584 3.20295,4.793551 2.20623,5.326304 1.12473,5.654372 z"
     id="path5139"
     inkscape:connector-curvature="0"
     style="fill:none;stroke:#000000;stroke-width:0.26046562;stroke-linecap:butt;stroke-linejoin:bevel;stroke-dasharray:none;stroke-dashoffset:0;stroke-opacity:1"
     inkscape:label="lidbody" />
  <path
     class="outer"
     d="m 13.264821,146.64279 1.549192,-8.07665 1.984029,-7.981 2.413039,-7.86192 2.834985,-7.71979 3.248615,-7.55506 3.652729,-7.36818 4.046134,-7.1597 4.42769,-6.930226 4.796259,-6.680481 5.150758,-6.411072 5.49018,-6.122941 5.813496,-5.816866 6.119784,-5.493689 29.41239,34.604634 -4.290117,3.851237 -4.075406,4.077748 -3.848735,4.292346 -3.610802,4.49433 -3.362286,4.68316 -3.103912,4.85826 -2.836437,5.01912 -2.560654,5.16526 -2.277349,5.29629 -1.987387,5.41176 -1.691606,5.51139 -1.390852,5.59486 -1.086023,5.66194 -0.77801,5.71241 -0.467722,5.74615 -0.156065,5.76303 0.156065,5.763 0.467715,5.74615 0.77802,5.71242 1.086013,5.66194 1.390849,5.59486 1.691597,5.51139 1.987382,5.41178 2.277366,5.29627 2.560649,5.16529 2.836436,5.01911 3.103912,4.85828 3.362286,4.68316 3.610802,4.49434 3.848761,4.29234 4.075412,4.07774 4.290107,3.85123 -29.412427,34.60468 -6.119785,-5.49371 -5.813503,-5.81685 -5.490189,-6.12296 -5.150765,-6.41111 -4.796252,-6.68046 -4.427683,-6.93024 -4.046135,-7.1597 -3.652729,-7.36819 -3.248615,-7.55508 -2.834986,-7.71981 -2.413036,-7.86193 -1.98402,-7.98098 -1.549185,-8.07666 -1.109823,-8.14868 -0.667189,-8.1968 -0.22261,-8.22082 0.22262,-8.22089 0.667201,-8.19679 z"
     id="path5145"
     inkscape:connector-curvature="0"
     style="fill:none;stroke:#000000;stroke-width:0.26046562;stroke-linecap:butt;stroke-linejoin:bevel;stroke-dasharray:none;stroke-dashoffset:0;stroke-opacity:1"
     inkscape:label="tedge" />
  <style
     id="style5243"
     type="text/css">
    path {
        fill: none;
        stroke-linecap: butt;
        stroke-linejoin: bevel;
        stroke-dasharray: none;
    }
    path.outer {
        stroke: #000000;
        stroke-dasharray: none;
        stroke-dashoffset: 0;
        stroke-width: 0.3;
        stroke-opacity: 1.0;
    }
    path.convex {
        stroke: #000000;
        stroke-dasharray: 0.50,1.00;
        stroke-dashoffset:0;
        stroke-width:0.2;
        stroke-opacity: 1.0
    }
    path.concave {
        stroke: #000000;
        stroke-dasharray: 1.00,0.50,0.20,0.50;
        stroke-dashoffset: 0;
        stroke-width: 0.2;
        stroke-opacity: 1.0
    }
    path.freestyle {
        stroke: #000000;
        stroke-dasharray: none;
        stroke-dashoffset: 0;
        stroke-width: 0.2;
        stroke-opacity: 1.0
    }
    path.outer_background {
        stroke: #ffffff;
        stroke-opacity: 1.0;
        stroke-width: 0.5
    }
    path.inner_background {
        stroke: #ffffff;
        stroke-opacity: 1.0;
        stroke-width: 0.2
    }
    path.sticker {
        fill: #e5e5e5;
        stroke: none;
        fill-opacity: 1.0;
    }
    path.arrow {
        fill: #000;
    }
    text {
        font-style: normal;
        fill: #000000;
        fill-opacity: 1.0;
        stroke: none;
    }
    text, tspan {
        text-anchor:middle;
    }
    </style>
  <path
     id="path5245"
     d="m 174.8677,232.26224 1.89286,-9.66814 -1.48467,-6.69384 -4.07342,-3.45841 11.57338,-13.31494 3.52438,10.68926 -1.05419,12.95416 -2.27971,7.51258 0.29317,6.35779 3.04073,8.42958 -9.41032,-5.85782 z"
     class="outer"
     inkscape:connector-curvature="0"
     style="fill:none;stroke:#000000;stroke-width:0.26046562;stroke-linecap:butt;stroke-linejoin:bevel;stroke-dasharray:none;stroke-dashoffset:0;stroke-opacity:1"
     inkscape:label="spout" />
  <path
     id="path5253"
     d="m 170.22759,105.0947 -4.64805,3.03914 -3.25363,-0.34734 -1.39442,-6.84118 1.39443,-6.841188 3.25363,-0.347331 4.64804,3.039139 3.71844,-0.694662 0.81342,-10.593588 4.1667,-2.518147 v 35.911567 l -4.1667,-2.51815 -0.81342,-10.5936 z"
     class="outer"
     inkscape:connector-curvature="0"
     style="fill:none;stroke:#000000;stroke-width:0.26046562;stroke-linecap:butt;stroke-linejoin:bevel;stroke-dasharray:none;stroke-dashoffset:0;stroke-opacity:1"
     inkscape:label="lid" />
</svg>
